G04 #@! TF.GenerationSoftware,KiCad,Pcbnew,(5.1.6)-1*
G04 #@! TF.CreationDate,2020-06-28T11:06:12-07:00*
G04 #@! TF.ProjectId,OGA_wifi,4f47415f-7769-4666-992e-6b696361645f,rev?*
G04 #@! TF.SameCoordinates,Original*
G04 #@! TF.FileFunction,Legend,Top*
G04 #@! TF.FilePolarity,Positive*
%FSLAX46Y46*%
G04 Gerber Fmt 4.6, Leading zero omitted, Abs format (unit mm)*
G04 Created by KiCad (PCBNEW (5.1.6)-1) date 2020-06-28 11:06:12*
%MOMM*%
%LPD*%
G01*
G04 APERTURE LIST*
%ADD10C,0.120000*%
%ADD11C,0.150000*%
G04 APERTURE END LIST*
D10*
X147604300Y-107902700D02*
X147604300Y-128342700D01*
X147604300Y-128342700D02*
X150264300Y-128342700D01*
X150264300Y-128342700D02*
X150264300Y-107902700D01*
X150264300Y-107902700D02*
X147604300Y-107902700D01*
X150264300Y-108852700D02*
X156264300Y-108852700D01*
X156264300Y-108852700D02*
X156264300Y-109612700D01*
X156264300Y-109612700D02*
X150264300Y-109612700D01*
X150264300Y-108912700D02*
X156264300Y-108912700D01*
X150264300Y-109032700D02*
X156264300Y-109032700D01*
X150264300Y-109152700D02*
X156264300Y-109152700D01*
X150264300Y-109272700D02*
X156264300Y-109272700D01*
X150264300Y-109392700D02*
X156264300Y-109392700D01*
X150264300Y-109512700D02*
X156264300Y-109512700D01*
X147274300Y-108852700D02*
X147604300Y-108852700D01*
X147274300Y-109612700D02*
X147604300Y-109612700D01*
X147604300Y-110502700D02*
X150264300Y-110502700D01*
X150264300Y-111392700D02*
X156264300Y-111392700D01*
X156264300Y-111392700D02*
X156264300Y-112152700D01*
X156264300Y-112152700D02*
X150264300Y-112152700D01*
X147207229Y-111392700D02*
X147604300Y-111392700D01*
X147207229Y-112152700D02*
X147604300Y-112152700D01*
X147604300Y-113042700D02*
X150264300Y-113042700D01*
X150264300Y-113932700D02*
X156264300Y-113932700D01*
X156264300Y-113932700D02*
X156264300Y-114692700D01*
X156264300Y-114692700D02*
X150264300Y-114692700D01*
X147207229Y-113932700D02*
X147604300Y-113932700D01*
X147207229Y-114692700D02*
X147604300Y-114692700D01*
X147604300Y-115582700D02*
X150264300Y-115582700D01*
X150264300Y-116472700D02*
X156264300Y-116472700D01*
X156264300Y-116472700D02*
X156264300Y-117232700D01*
X156264300Y-117232700D02*
X150264300Y-117232700D01*
X147207229Y-116472700D02*
X147604300Y-116472700D01*
X147207229Y-117232700D02*
X147604300Y-117232700D01*
X147604300Y-118122700D02*
X150264300Y-118122700D01*
X150264300Y-119012700D02*
X156264300Y-119012700D01*
X156264300Y-119012700D02*
X156264300Y-119772700D01*
X156264300Y-119772700D02*
X150264300Y-119772700D01*
X147207229Y-119012700D02*
X147604300Y-119012700D01*
X147207229Y-119772700D02*
X147604300Y-119772700D01*
X147604300Y-120662700D02*
X150264300Y-120662700D01*
X150264300Y-121552700D02*
X156264300Y-121552700D01*
X156264300Y-121552700D02*
X156264300Y-122312700D01*
X156264300Y-122312700D02*
X150264300Y-122312700D01*
X147207229Y-121552700D02*
X147604300Y-121552700D01*
X147207229Y-122312700D02*
X147604300Y-122312700D01*
X147604300Y-123202700D02*
X150264300Y-123202700D01*
X150264300Y-124092700D02*
X156264300Y-124092700D01*
X156264300Y-124092700D02*
X156264300Y-124852700D01*
X156264300Y-124852700D02*
X150264300Y-124852700D01*
X147207229Y-124092700D02*
X147604300Y-124092700D01*
X147207229Y-124852700D02*
X147604300Y-124852700D01*
X147604300Y-125742700D02*
X150264300Y-125742700D01*
X150264300Y-126632700D02*
X156264300Y-126632700D01*
X156264300Y-126632700D02*
X156264300Y-127392700D01*
X156264300Y-127392700D02*
X150264300Y-127392700D01*
X147207229Y-126632700D02*
X147604300Y-126632700D01*
X147207229Y-127392700D02*
X147604300Y-127392700D01*
X144894300Y-109232700D02*
X144894300Y-107962700D01*
X144894300Y-107962700D02*
X146164300Y-107962700D01*
X134165600Y-127005900D02*
X132165600Y-127005900D01*
X132165600Y-129965900D02*
X134165600Y-129965900D01*
X116706100Y-127529700D02*
X117906100Y-127529700D01*
X117906100Y-129289700D02*
X116706100Y-129289700D01*
X138950000Y-124380000D02*
X137750000Y-124380000D01*
X137750000Y-122620000D02*
X138950000Y-122620000D01*
X137950000Y-110720000D02*
X139150000Y-110720000D01*
X139150000Y-112480000D02*
X137950000Y-112480000D01*
X138950000Y-121980000D02*
X137750000Y-121980000D01*
X137750000Y-120220000D02*
X138950000Y-120220000D01*
X137950000Y-112920000D02*
X139150000Y-112920000D01*
X139150000Y-114680000D02*
X137950000Y-114680000D01*
X139050000Y-119480000D02*
X137850000Y-119480000D01*
X137850000Y-117720000D02*
X139050000Y-117720000D01*
X137900000Y-115320000D02*
X139100000Y-115320000D01*
X139100000Y-117080000D02*
X137900000Y-117080000D01*
X110180000Y-125520000D02*
X110180000Y-109280000D01*
X110180000Y-109280000D02*
X117800000Y-109280000D01*
X133800000Y-109280000D02*
X134420000Y-109280000D01*
X134420000Y-109280000D02*
X134420000Y-111400000D01*
X134420000Y-123400000D02*
X134420000Y-125520000D01*
X134420000Y-125520000D02*
X133800000Y-125520000D01*
X117800000Y-125520000D02*
X110180000Y-125520000D01*
X117800000Y-125520000D02*
X117800000Y-126130000D01*
X123825700Y-127529700D02*
X125025700Y-127529700D01*
X125025700Y-129289700D02*
X123825700Y-129289700D01*
D11*
X145828426Y-106198420D02*
X145828426Y-106912706D01*
X145780807Y-107055563D01*
X145685569Y-107150801D01*
X145542712Y-107198420D01*
X145447474Y-107198420D01*
X146828426Y-107198420D02*
X146256998Y-107198420D01*
X146542712Y-107198420D02*
X146542712Y-106198420D01*
X146447474Y-106341278D01*
X146352236Y-106436516D01*
X146256998Y-106484135D01*
X128598633Y-128881142D02*
X128551014Y-128928761D01*
X128408157Y-128976380D01*
X128312919Y-128976380D01*
X128170061Y-128928761D01*
X128074823Y-128833523D01*
X128027204Y-128738285D01*
X127979585Y-128547809D01*
X127979585Y-128404952D01*
X128027204Y-128214476D01*
X128074823Y-128119238D01*
X128170061Y-128024000D01*
X128312919Y-127976380D01*
X128408157Y-127976380D01*
X128551014Y-128024000D01*
X128598633Y-128071619D01*
X129551014Y-128976380D02*
X128979585Y-128976380D01*
X129265300Y-128976380D02*
X129265300Y-127976380D01*
X129170061Y-128119238D01*
X129074823Y-128214476D01*
X128979585Y-128262095D01*
X113752333Y-128963680D02*
X113419000Y-128487490D01*
X113180904Y-128963680D02*
X113180904Y-127963680D01*
X113561857Y-127963680D01*
X113657095Y-128011300D01*
X113704714Y-128058919D01*
X113752333Y-128154157D01*
X113752333Y-128297014D01*
X113704714Y-128392252D01*
X113657095Y-128439871D01*
X113561857Y-128487490D01*
X113180904Y-128487490D01*
X114704714Y-128963680D02*
X114133285Y-128963680D01*
X114419000Y-128963680D02*
X114419000Y-127963680D01*
X114323761Y-128106538D01*
X114228523Y-128201776D01*
X114133285Y-128249395D01*
X141908233Y-123947180D02*
X141574900Y-123470990D01*
X141336804Y-123947180D02*
X141336804Y-122947180D01*
X141717757Y-122947180D01*
X141812995Y-122994800D01*
X141860614Y-123042419D01*
X141908233Y-123137657D01*
X141908233Y-123280514D01*
X141860614Y-123375752D01*
X141812995Y-123423371D01*
X141717757Y-123470990D01*
X141336804Y-123470990D01*
X142289185Y-123042419D02*
X142336804Y-122994800D01*
X142432042Y-122947180D01*
X142670138Y-122947180D01*
X142765376Y-122994800D01*
X142812995Y-123042419D01*
X142860614Y-123137657D01*
X142860614Y-123232895D01*
X142812995Y-123375752D01*
X142241566Y-123947180D01*
X142860614Y-123947180D01*
X141959033Y-112110780D02*
X141625700Y-111634590D01*
X141387604Y-112110780D02*
X141387604Y-111110780D01*
X141768557Y-111110780D01*
X141863795Y-111158400D01*
X141911414Y-111206019D01*
X141959033Y-111301257D01*
X141959033Y-111444114D01*
X141911414Y-111539352D01*
X141863795Y-111586971D01*
X141768557Y-111634590D01*
X141387604Y-111634590D01*
X142292366Y-111110780D02*
X142911414Y-111110780D01*
X142578080Y-111491733D01*
X142720938Y-111491733D01*
X142816176Y-111539352D01*
X142863795Y-111586971D01*
X142911414Y-111682209D01*
X142911414Y-111920304D01*
X142863795Y-112015542D01*
X142816176Y-112063161D01*
X142720938Y-112110780D01*
X142435223Y-112110780D01*
X142339985Y-112063161D01*
X142292366Y-112015542D01*
X141959033Y-121584980D02*
X141625700Y-121108790D01*
X141387604Y-121584980D02*
X141387604Y-120584980D01*
X141768557Y-120584980D01*
X141863795Y-120632600D01*
X141911414Y-120680219D01*
X141959033Y-120775457D01*
X141959033Y-120918314D01*
X141911414Y-121013552D01*
X141863795Y-121061171D01*
X141768557Y-121108790D01*
X141387604Y-121108790D01*
X142816176Y-120918314D02*
X142816176Y-121584980D01*
X142578080Y-120537361D02*
X142339985Y-121251647D01*
X142959033Y-121251647D01*
X141920933Y-114218980D02*
X141587600Y-113742790D01*
X141349504Y-114218980D02*
X141349504Y-113218980D01*
X141730457Y-113218980D01*
X141825695Y-113266600D01*
X141873314Y-113314219D01*
X141920933Y-113409457D01*
X141920933Y-113552314D01*
X141873314Y-113647552D01*
X141825695Y-113695171D01*
X141730457Y-113742790D01*
X141349504Y-113742790D01*
X142825695Y-113218980D02*
X142349504Y-113218980D01*
X142301885Y-113695171D01*
X142349504Y-113647552D01*
X142444742Y-113599933D01*
X142682838Y-113599933D01*
X142778076Y-113647552D01*
X142825695Y-113695171D01*
X142873314Y-113790409D01*
X142873314Y-114028504D01*
X142825695Y-114123742D01*
X142778076Y-114171361D01*
X142682838Y-114218980D01*
X142444742Y-114218980D01*
X142349504Y-114171361D01*
X142301885Y-114123742D01*
X141844733Y-119108480D02*
X141511400Y-118632290D01*
X141273304Y-119108480D02*
X141273304Y-118108480D01*
X141654257Y-118108480D01*
X141749495Y-118156100D01*
X141797114Y-118203719D01*
X141844733Y-118298957D01*
X141844733Y-118441814D01*
X141797114Y-118537052D01*
X141749495Y-118584671D01*
X141654257Y-118632290D01*
X141273304Y-118632290D01*
X142701876Y-118108480D02*
X142511400Y-118108480D01*
X142416161Y-118156100D01*
X142368542Y-118203719D01*
X142273304Y-118346576D01*
X142225685Y-118537052D01*
X142225685Y-118918004D01*
X142273304Y-119013242D01*
X142320923Y-119060861D01*
X142416161Y-119108480D01*
X142606638Y-119108480D01*
X142701876Y-119060861D01*
X142749495Y-119013242D01*
X142797114Y-118918004D01*
X142797114Y-118679909D01*
X142749495Y-118584671D01*
X142701876Y-118537052D01*
X142606638Y-118489433D01*
X142416161Y-118489433D01*
X142320923Y-118537052D01*
X142273304Y-118584671D01*
X142225685Y-118679909D01*
X141870133Y-116644680D02*
X141536800Y-116168490D01*
X141298704Y-116644680D02*
X141298704Y-115644680D01*
X141679657Y-115644680D01*
X141774895Y-115692300D01*
X141822514Y-115739919D01*
X141870133Y-115835157D01*
X141870133Y-115978014D01*
X141822514Y-116073252D01*
X141774895Y-116120871D01*
X141679657Y-116168490D01*
X141298704Y-116168490D01*
X142203466Y-115644680D02*
X142870133Y-115644680D01*
X142441561Y-116644680D01*
X125775815Y-106335580D02*
X125775815Y-107145104D01*
X125823434Y-107240342D01*
X125871053Y-107287961D01*
X125966291Y-107335580D01*
X126156767Y-107335580D01*
X126252005Y-107287961D01*
X126299624Y-107240342D01*
X126347243Y-107145104D01*
X126347243Y-106335580D01*
X127347243Y-107335580D02*
X126775815Y-107335580D01*
X127061529Y-107335580D02*
X127061529Y-106335580D01*
X126966291Y-106478438D01*
X126871053Y-106573676D01*
X126775815Y-106621295D01*
X120826233Y-128874780D02*
X120492900Y-128398590D01*
X120254804Y-128874780D02*
X120254804Y-127874780D01*
X120635757Y-127874780D01*
X120730995Y-127922400D01*
X120778614Y-127970019D01*
X120826233Y-128065257D01*
X120826233Y-128208114D01*
X120778614Y-128303352D01*
X120730995Y-128350971D01*
X120635757Y-128398590D01*
X120254804Y-128398590D01*
X121397661Y-128303352D02*
X121302423Y-128255733D01*
X121254804Y-128208114D01*
X121207185Y-128112876D01*
X121207185Y-128065257D01*
X121254804Y-127970019D01*
X121302423Y-127922400D01*
X121397661Y-127874780D01*
X121588138Y-127874780D01*
X121683376Y-127922400D01*
X121730995Y-127970019D01*
X121778614Y-128065257D01*
X121778614Y-128112876D01*
X121730995Y-128208114D01*
X121683376Y-128255733D01*
X121588138Y-128303352D01*
X121397661Y-128303352D01*
X121302423Y-128350971D01*
X121254804Y-128398590D01*
X121207185Y-128493828D01*
X121207185Y-128684304D01*
X121254804Y-128779542D01*
X121302423Y-128827161D01*
X121397661Y-128874780D01*
X121588138Y-128874780D01*
X121683376Y-128827161D01*
X121730995Y-128779542D01*
X121778614Y-128684304D01*
X121778614Y-128493828D01*
X121730995Y-128398590D01*
X121683376Y-128350971D01*
X121588138Y-128303352D01*
M02*
