G04 #@! TF.GenerationSoftware,KiCad,Pcbnew,(5.1.6)-1*
G04 #@! TF.CreationDate,2020-06-28T11:06:12-07:00*
G04 #@! TF.ProjectId,OGA_wifi,4f47415f-7769-4666-992e-6b696361645f,rev?*
G04 #@! TF.SameCoordinates,Original*
G04 #@! TF.FileFunction,Copper,L1,Top*
G04 #@! TF.FilePolarity,Positive*
%FSLAX46Y46*%
G04 Gerber Fmt 4.6, Leading zero omitted, Abs format (unit mm)*
G04 Created by KiCad (PCBNEW (5.1.6)-1) date 2020-06-28 11:06:12*
%MOMM*%
%LPD*%
G01*
G04 APERTURE LIST*
G04 #@! TA.AperFunction,ComponentPad*
%ADD10O,1.700000X1.700000*%
G04 #@! TD*
G04 #@! TA.AperFunction,ComponentPad*
%ADD11R,1.700000X1.700000*%
G04 #@! TD*
G04 #@! TA.AperFunction,SMDPad,CuDef*
%ADD12R,2.000000X2.500000*%
G04 #@! TD*
G04 #@! TA.AperFunction,SMDPad,CuDef*
%ADD13R,1.500000X1.300000*%
G04 #@! TD*
G04 #@! TA.AperFunction,SMDPad,CuDef*
%ADD14R,1.000000X2.500000*%
G04 #@! TD*
G04 #@! TA.AperFunction,SMDPad,CuDef*
%ADD15R,1.800000X1.000000*%
G04 #@! TD*
G04 #@! TA.AperFunction,ViaPad*
%ADD16C,0.800000*%
G04 #@! TD*
G04 #@! TA.AperFunction,Conductor*
%ADD17C,0.250000*%
G04 #@! TD*
G04 APERTURE END LIST*
D10*
X146164300Y-127012700D03*
X146164300Y-124472700D03*
X146164300Y-121932700D03*
X146164300Y-119392700D03*
X146164300Y-116852700D03*
X146164300Y-114312700D03*
X146164300Y-111772700D03*
D11*
X146164300Y-109232700D03*
D12*
X135165600Y-128485900D03*
X131165600Y-128485900D03*
D13*
X115956100Y-128409700D03*
X118656100Y-128409700D03*
X139700000Y-123500000D03*
X137000000Y-123500000D03*
X137200000Y-111600000D03*
X139900000Y-111600000D03*
X139700000Y-121100000D03*
X137000000Y-121100000D03*
X137200000Y-113800000D03*
X139900000Y-113800000D03*
X139800000Y-118600000D03*
X137100000Y-118600000D03*
X137150000Y-116200000D03*
X139850000Y-116200000D03*
D14*
X118800000Y-109800000D03*
X120800000Y-109800000D03*
X122800000Y-109800000D03*
X124800000Y-109800000D03*
X126800000Y-109800000D03*
X128800000Y-109800000D03*
X130800000Y-109800000D03*
X132800000Y-109800000D03*
D15*
X134300000Y-112400000D03*
X134300000Y-114400000D03*
X134300000Y-116400000D03*
X134300000Y-118400000D03*
X134300000Y-120400000D03*
X134300000Y-122400000D03*
D14*
X132800000Y-125000000D03*
X130800000Y-125000000D03*
X128800000Y-125000000D03*
X126800000Y-125000000D03*
X124800000Y-125000000D03*
X122800000Y-125000000D03*
X120800000Y-125000000D03*
X118800000Y-125000000D03*
D13*
X123075700Y-128409700D03*
X125775700Y-128409700D03*
D16*
X131025900Y-117195600D03*
X128066800Y-128511300D03*
X122021600Y-122250200D03*
X144297400Y-118884700D03*
X143116300Y-121107200D03*
X141312900Y-123507500D03*
D17*
X135165600Y-128485900D02*
X140068300Y-128485900D01*
X141541500Y-127012700D02*
X146164300Y-127012700D01*
X140068300Y-128485900D02*
X141541500Y-127012700D01*
X131025900Y-117195600D02*
X131025900Y-113157000D01*
X132800000Y-111382900D02*
X132800000Y-109800000D01*
X131025900Y-113157000D02*
X132800000Y-111382900D01*
X118800000Y-123500000D02*
X118800000Y-125000000D01*
X131165600Y-128485900D02*
X128092200Y-128485900D01*
X128092200Y-128485900D02*
X128066800Y-128511300D01*
X122021600Y-122250200D02*
X120049800Y-122250200D01*
X120049800Y-122250200D02*
X118800000Y-123500000D01*
X115956100Y-128409700D02*
X115956100Y-126499600D01*
X117455700Y-125000000D02*
X118800000Y-125000000D01*
X115956100Y-126499600D02*
X117455700Y-125000000D01*
X132800000Y-125000000D02*
X133953500Y-125000000D01*
X133953500Y-125000000D02*
X134810500Y-125857000D01*
X134810500Y-125857000D02*
X142252700Y-125857000D01*
X143637000Y-124472700D02*
X146164300Y-124472700D01*
X142252700Y-125857000D02*
X143637000Y-124472700D01*
X118656100Y-128409700D02*
X123075700Y-128409700D01*
X123075700Y-128409700D02*
X123075700Y-129324100D01*
X123075700Y-129324100D02*
X123609100Y-129857500D01*
X123609100Y-129857500D02*
X126669800Y-129857500D01*
X126669800Y-129857500D02*
X127203200Y-129324100D01*
X127203200Y-128301898D02*
X128593998Y-126911100D01*
X127203200Y-129324100D02*
X127203200Y-128301898D01*
X129905398Y-126911100D02*
X129905599Y-126910899D01*
X128593998Y-126911100D02*
X129905398Y-126911100D01*
X132800000Y-126500000D02*
X132800000Y-125000000D01*
X132389101Y-126910899D02*
X132800000Y-126500000D01*
X129905599Y-126910899D02*
X132389101Y-126910899D01*
X144297400Y-118884700D02*
X143725900Y-118884700D01*
X141041200Y-116200000D02*
X139850000Y-116200000D01*
X143725900Y-118884700D02*
X141041200Y-116200000D01*
X146164300Y-119392700D02*
X145681700Y-119392700D01*
X145681700Y-119392700D02*
X144995900Y-120078500D01*
X144995900Y-120078500D02*
X143192500Y-120078500D01*
X141714000Y-118600000D02*
X139800000Y-118600000D01*
X143192500Y-120078500D02*
X141714000Y-118600000D01*
X139900000Y-113800000D02*
X141790800Y-113800000D01*
X141790800Y-113800000D02*
X142760700Y-114769900D01*
X142760700Y-114769900D02*
X142760700Y-116408200D01*
X143205200Y-116852700D02*
X146164300Y-116852700D01*
X142760700Y-116408200D02*
X143205200Y-116852700D01*
X139700000Y-121100000D02*
X143109100Y-121100000D01*
X143109100Y-121100000D02*
X143116300Y-121107200D01*
X145991600Y-111600000D02*
X146164300Y-111772700D01*
X139900000Y-111600000D02*
X145991600Y-111600000D01*
X139700000Y-123500000D02*
X141305400Y-123500000D01*
X141305400Y-123500000D02*
X141312900Y-123507500D01*
X134300000Y-123150000D02*
X134300000Y-122400000D01*
X134650000Y-123500000D02*
X134300000Y-123150000D01*
X137000000Y-123500000D02*
X134650000Y-123500000D01*
X134300000Y-111650000D02*
X134300000Y-112400000D01*
X134350000Y-111600000D02*
X134300000Y-111650000D01*
X137200000Y-111600000D02*
X134350000Y-111600000D01*
X135000000Y-121100000D02*
X134300000Y-120400000D01*
X137000000Y-121100000D02*
X135000000Y-121100000D01*
X134900000Y-113800000D02*
X134300000Y-114400000D01*
X137200000Y-113800000D02*
X134900000Y-113800000D01*
X134500000Y-118600000D02*
X134300000Y-118400000D01*
X137100000Y-118600000D02*
X134500000Y-118600000D01*
X134500000Y-116200000D02*
X134300000Y-116400000D01*
X137150000Y-116200000D02*
X134500000Y-116200000D01*
X122800000Y-125000000D02*
X122800000Y-125987700D01*
X122800000Y-125987700D02*
X123736100Y-126923800D01*
X124289800Y-126923800D02*
X125775700Y-128409700D01*
X123736100Y-126923800D02*
X124289800Y-126923800D01*
M02*
